# xmcd CD database file
#
# Track frame offsets:
#	150
#	24905
#	61639
#	91084
#	117160
#	147930
#
# Disc length: 2392 seconds
#
# Revision: 0
# Processed by: cddbd v1.4PL0 Copyright (c) Steve Scherf et al.
# Submitted via: CDex 1.50beta10
#
DISCID=3e095606
DTITLE=Benny Bailey - Hard Sock Dance
DYEAR=1960
DGENRE=Jazz
TTITLE0=Please Say Yes
TTITLE1=A Kiss To Build A Dream On
TTITLE2=Maud's Wood
TTITLE3=Hard Sock Dance
TTITLE4=Alison
TTITLE5=Tipsy
EXTD=YEAR: 1960
EXTT0=
EXTT1=
EXTT2=
EXTT3=
EXTT4=
EXTT5=
PLAYORDER=
